<?xml version="1.0" encoding="utf-8"?>
<!-- Generator: Adobe Illustrator 25.2.1, SVG Export Plug-In . SVG Version: 6.00 Build 0)  -->
<svg version="1.1" id="Warstwa_1" xmlns="http://www.w3.org/2000/svg" xmlns:xlink="http://www.w3.org/1999/xlink" x="0px" y="0px"
	 viewBox="0 0 300 180" style="enable-background:new 0 0 300 180;" xml:space="preserve">
<g>
	<g>
		<path d="M178.2,21.4c-4.6,12.7-9.1,25.1-13.7,37.7c1,0.1,1.7,0.2,2.6,0.2c0,1.2,0,2.4,0,3.7c-9.3,0-18.6,0-28,0c0-1.2,0-2.4,0-3.7
			c0.8-0.1,1.5-0.2,2.6-0.3c-4.6-12.6-9.1-25-13.7-37.6c1.3,0,2.4-0.1,3.4,0.1c0.5,0.1,1.1,0.7,1.3,1.2c4.2,11.4,8.3,22.8,12.4,34.3
			c0.6,1.6,1.3,2.4,3.2,2.3c3.3-0.2,6.7-0.1,10,0c1.4,0,1.9-0.5,2.3-1.7c4.1-11.4,8.3-22.7,12.4-34.1c0.6-1.6,1.2-2.3,2.9-2
			C176.7,21.5,177.3,21.4,178.2,21.4z"/>
		<path d="M137.7,11.5c1.5,0,2.9-0.1,4.2,0.1c0.4,0,0.9,0.7,1.1,1.1c3.1,9,6.2,18,9.4,27c0.2,0.7,0.5,1.3,0.9,2.5
			c1.2-3.3,2.2-6.2,3.2-9c2.3-6.7,4.6-13.3,6.9-20c0.4-1.3,1-1.9,2.4-1.7c0.9,0.1,1.8,0,3,0c-0.9,2.5-1.7,4.8-2.5,7.1
			c-3.2,8.8-6.4,17.6-9.6,26.4c-0.5,1.5-1.2,2.1-2.8,2c-3.2-0.1-3.2,0-4.1-2.6c-3.1-8.5-6.2-17-9.3-25.5
			C139.5,16.4,138.6,14.1,137.7,11.5z"/>
	</g>
	<g>
		<path d="M41,93.3c1.4,0.1,2.8,0.2,4.2,0.1c1.1,0,1.7,0.3,2.1,1.5c3.8,10.3,7.7,20.6,11.6,30.8c0.1,0.3,0.3,0.7,0.6,1.3
			c0.8-2.1,1.6-4,2.3-6c3.2-8.6,6.4-17.2,9.6-25.8c0.5-1.3,1.1-1.8,2.5-1.7c1.2,0.1,2.4,0,3.8,0c-1.7,4.5-3.4,8.8-5,13.1
			c-3.2,8.4-6.5,16.8-9.7,25.2c-0.4,1.2-0.9,1.7-2.3,1.7c-4.1-0.1-4.1,0-5.7-4c-4.5-11.6-9-23.2-13.4-34.8c-0.1-0.3-0.3-0.5-0.4-0.8
			C41,93.8,41,93.6,41,93.3z"/>
		<path d="M219.5,117.5c3.4,5.3,6.7,10.5,10.2,16c-2.2,0-4,0.1-5.8-0.1c-0.4,0-0.9-0.7-1.2-1.2c-2.8-4.3-5.6-8.6-8.3-13
			c-0.6-0.9-1.2-1.2-2.2-1.2c-2.6,0.1-5.3,0-8.1,0c0,5.2,0,10.2,0,15.3c-1.9,0-3.6,0-5.5,0c0-11.9,0-23.6,0-35.5
			c-0.7-0.1-1.3-0.2-1.9-0.3c0-1.3,0-2.5,0-3.8c0.5,0,1-0.1,1.4-0.1c6.3,0,12.6,0,18.9,0c4.8,0,8.7,2,10.7,6.4
			c2.1,4.6,1.7,9.2-1.4,13.4C224.7,115.7,222.3,116.8,219.5,117.5z M204.2,113.7c4.3,0,8.4,0.1,12.5,0c3.9-0.2,6.4-3.1,6.6-7.2
			c0.2-4.4-2-7.9-5.9-8.3c-4.4-0.4-8.8-0.1-13.3-0.1C204.2,103.4,204.2,108.5,204.2,113.7z"/>
		<path d="M152.9,114.5c0-7.8,2-13.6,7.5-18c8.8-7,28.3-5.4,31.2,12.4c0.7,4.2,0.6,8.3-0.7,12.4c-3,9.3-11,13.7-20.4,13
			C159.4,133.5,152.7,124.5,152.9,114.5z M172.5,97.3c-5.6,0-9.7,2.5-12.1,7.4c-2.7,5.6-2.7,11.5-0.3,17.2c2.3,5.4,6.6,8.1,12.4,8.1
			c5.6,0,9.9-2.7,12.2-7.9c2.5-5.7,2.5-11.6-0.1-17.2C182.2,99.8,178,97.2,172.5,97.3z"/>
		<path d="M116,133.5c-1.7,0-3.2,0.1-4.6-0.1c-0.5-0.1-1.1-0.6-1.3-1.1c-0.9-2.1-1.7-4.3-2.7-6.3c-0.3-0.5-1.1-1.2-1.7-1.2
			c-6-0.1-12-0.1-18,0c-0.6,0-1.3,0.7-1.6,1.2c-0.9,2-1.8,4-2.5,6c-0.4,1.1-0.9,1.5-2.1,1.5c-1.2-0.1-2.4,0-3.9,0
			c1.2-3.1,2.4-5.9,3.5-8.8c-0.6-0.1-1.1-0.2-1.8-0.2c0.5-1.1,0.9-2.1,1.3-3c0.1-0.3,0.5-0.8,0.6-0.8c2,0.3,2-1.3,2.5-2.5
			c3.2-7.6,6.3-15.3,9.4-22.9c0.5-1.3,1.2-1.7,2.5-1.6c3.8,0.1,3.9,0,5.3,3.5C105.9,109.1,110.9,121.2,116,133.5z M96.7,99.7
			c-2.9,7.1-5.6,13.9-8.4,20.7c5.7,0,11.1,0,16.8,0C102.3,113.6,99.6,106.9,96.7,99.7z"/>
		<path d="M231.3,93.8c5.6-0.4,5.6-0.4,8.3,4.1c2.9,4.8,5.7,9.5,8.7,14.6c1.7-2.8,3.2-5.3,4.7-7.9c1.9-3.1,3.7-6.2,5.5-9.4
			c0.6-1.1,1.4-1.7,2.7-1.6c1.2,0.1,2.5,0,4.1,0c-1.9,3.1-3.6,5.9-5.3,8.7c-2.7,4.4-5.4,8.7-8,13.2c-0.5,0.9-0.9,2-0.9,3
			c-0.1,4.9,0,9.8,0,14.9c-1.8,0-3.6,0-5.5,0c0-0.6-0.1-1.2-0.1-1.9c0-4.1,0.1-8.2-0.1-12.4c0-1.4-0.5-2.9-1.1-4
			c-4-6.6-8.1-13.2-12.1-19.8C231.9,94.9,231.7,94.4,231.3,93.8z"/>
		<path d="M120.6,93.8c1.9,0,3.5,0,5.4,0c0,11.8,0,23.5,0,35.5c7.7,0,15.3,0,23.1,0c-0.2,1.5-0.4,2.7-0.6,4c-9.3,0-18.5,0-27.9,0
			C120.6,120.2,120.6,107,120.6,93.8z"/>
	</g>
	<g>
		<path d="M89.5,160.9c0.3,1.4,0.7,2.5,0.7,3.6c0,1.2-0.9,2.1-2.1,2.1c-1.9,0.1-3.9,0-5.9,0c0-3.4,0-6.6,0-10c2,0,4-0.2,6,0.1
			C90.2,157,90.6,159.8,89.5,160.9z M83.5,165.5c1.3,0,2.6,0,3.8,0c1,0,1.6-0.6,1.7-1.5c0-1-0.4-1.8-1.5-1.9c-1.3-0.1-2.6,0-4,0
			C83.5,163.2,83.5,164.2,83.5,165.5z M83.5,160.7c1.4,0,2.7,0.1,4-0.1c0.4-0.1,1.1-0.9,1.1-1.4c0-0.5-0.7-1.3-1.1-1.3
			c-1.3-0.2-2.6-0.1-4-0.1C83.5,158.9,83.5,159.8,83.5,160.7z"/>
		<path d="M159.9,156.6c1.7,0,3.2,0,4.8,0c1.8,0,3,0.9,3.4,2.4c0.5,1.7-0.1,3.2-1.6,4.1c-0.1,0.1-0.2,0.1-0.4,0.3
			c0.4,0.6,0.8,1.1,1.2,1.6c0.4,0.5,0.7,1,1.1,1.5c-1.1,0.3-1.9,0.1-2.3-0.8c-1-2-2.7-2.5-4.9-1.9c0,0.8,0,1.8,0,2.8
			c-0.5,0-0.8,0-1.3,0.1C159.9,163.3,159.9,160,159.9,156.6z M161.2,162.4c1.3,0,2.4,0.1,3.5,0c1.2-0.1,2.1-1,2.1-2.2
			c0-1.2-0.8-2.2-2-2.3c-1.2-0.1-2.4,0-3.7,0C161.2,159.4,161.2,160.8,161.2,162.4z"/>
		<path d="M207.1,166.6c-0.5,0-0.8,0-1.3,0c0-3.3,0-6.6,0-10c1.8,0,3.6-0.1,5.4,0c1.4,0.1,2.5,1.2,2.8,2.5c0.4,1.5-0.1,3-1.3,3.8
			c-0.2,0.1-0.4,0.3-0.7,0.5c0.8,1.1,1.5,2.1,2.3,3.1c-1,0.4-1.8,0.2-2.2-0.7c0,0-0.1-0.1-0.1-0.1c-1-2.1-2.7-2.4-4.9-1.9
			C207.1,164.7,207.1,165.6,207.1,166.6z M207.2,162.4c1,0,2,0,2.9,0c0.2,0,0.4,0,0.6,0c1.2-0.1,2-0.9,2.1-2.1
			c0.1-1.1-0.6-2.3-1.7-2.4c-1.3-0.2-2.6,0-3.9,0C207.2,159.4,207.2,160.9,207.2,162.4z"/>
		<path d="M123.6,160c0,2.2,0,4.3,0,6.6c-0.4,0-0.8,0.1-1.3,0.1c0-3.4,0-6.8,0-10.3c2.4,2.4,4.7,4.8,6.9,7.1
			c0.1-0.1,0.2-0.1,0.3-0.2c0-2.2,0-4.4,0-6.6c0.5,0,0.9,0,1.3,0c0,3.4,0,6.7,0,10.3c-2.4-2.5-4.7-4.9-6.9-7.2
			C123.8,159.9,123.7,159.9,123.6,160z"/>
		<path d="M186,166.7c-0.6,0-0.9,0-1.3,0c0-3.4,0-6.7,0-10.3c2.4,2.5,4.7,4.8,7,7.1c0.1-0.1,0.2-0.1,0.3-0.2c0-2.2,0-4.4,0-6.6
			c0.5,0,0.9,0,1.3,0c0,3.4,0,6.7,0,10.1c-2.3-2.4-4.6-4.7-6.8-7c-0.1,0.1-0.3,0.2-0.4,0.3C186,162.2,186,164.3,186,166.7z"/>
		<path d="M133.4,156.6c1.6,0,3.2-0.1,4.7,0c2.5,0.2,4.1,2,4.3,4.7c0.1,2.8-1.3,4.9-3.9,5.2c-1.6,0.2-3.3,0-5.1,0
			C133.4,163.3,133.4,160,133.4,156.6z M134.7,165.4c2.1,0,4.3,0.6,5.6-1.6c0.9-1.4,0.9-3,0-4.4c-1.4-2.2-3.6-1.5-5.6-1.6
			C134.7,160.4,134.7,162.9,134.7,165.4z"/>
		<path d="M170.2,166.7c0-3.4,0-6.7,0-10c1.7,0,3.4-0.2,5.1,0c2.6,0.3,4,2.5,3.8,5.3c-0.2,2.8-1.9,4.5-4.5,4.6
			C173.2,166.7,171.8,166.7,170.2,166.7z M171.6,165.5c2.1-0.1,4.4,0.5,5.7-1.7c0.8-1.5,0.8-3-0.1-4.4c-1.4-2.1-3.5-1.4-5.6-1.5
			C171.6,160.4,171.6,162.9,171.6,165.5z"/>
		<path d="M110.2,161.7c0-2.9,2.3-5.2,5.2-5.2c2.9,0,5.3,2.4,5.2,5.3c0,2.9-2.4,5.2-5.3,5.1C112.5,166.9,110.2,164.6,110.2,161.7z
			 M115.4,157.8c-2.2,0-3.9,1.7-3.9,3.9c0,2.2,1.7,4,3.8,4c2.1,0,3.9-1.7,3.9-3.9C119.3,159.6,117.6,157.8,115.4,157.8z"/>
		<path d="M147.8,161.8c0-2.9,2.2-5.2,5.1-5.2c2.9,0,5.3,2.3,5.3,5.2c0,2.9-2.3,5.2-5.2,5.2C150.1,167,147.8,164.6,147.8,161.8z
			 M152.9,165.7c2.1,0,3.9-1.7,3.9-3.9c0.1-2.2-1.7-4-3.8-4c-2.2,0-3.9,1.7-3.9,3.9C149.1,163.9,150.8,165.7,152.9,165.7z"/>
		<path d="M99.3,156.7c0.3,0.8,0.1,1.2-0.8,1.2c-1.6,0-3.2,0-4.9,0c0,1,0,1.9,0,3c1.5,0,3.1,0,4.6,0c0.4,0,0.7,0.3,1.1,0.5
			c-0.4,0.2-0.7,0.6-1.1,0.6c-1.5,0.1-3,0-4.6,0c0,1.2,0,2.2,0,3.4c1.9,0,3.8,0,5.8,0c0.1,0.4,0.1,0.8,0.2,1.2c-2.5,0-4.8,0-7.3,0
			c0-3.3,0-6.6,0-9.9C94.6,156.7,96.9,156.7,99.3,156.7z"/>
		<path d="M194.5,166.6c1.5-3.2,3-6.3,4.5-9.4c0.1-0.2,0.3-0.5,0.5-0.9c1.7,3.5,3.3,6.9,5,10.3c-1,0.2-1.6,0.1-2-0.8
			c-0.2-0.4-0.8-0.7-1.2-0.7c-1.2-0.1-2.4-0.1-3.5,0c-0.4,0-1.1,0.4-1.2,0.7C196.2,166.8,195.5,166.8,194.5,166.6z M197.4,163.7
			c1.5,0,2.8,0,4.2,0c-0.7-1.5-1.3-2.9-2.1-4.5C198.8,160.9,198.1,162.2,197.4,163.7z"/>
		<path d="M105.3,160.4c0.7-0.9,1.5-1.8,2.1-2.7c0.6-0.8,1.2-1.4,2.5-0.9c-0.9,1.1-1.7,2.3-2.6,3.4c-1,1.1-1.4,2.3-1.3,3.8
			c0.1,0.9,0,1.7,0,2.7c-0.5,0-0.8,0.1-1.2,0.1c0-0.3-0.1-0.5-0.1-0.8c0.5-3-0.5-5.4-2.6-7.5c-0.5-0.5-0.9-1.1-1.3-1.7
			c1.4-0.6,2,0.2,2.6,1.1C103.9,158.7,104.6,159.5,105.3,160.4z"/>
		<path d="M224.2,156.7c-1,1.3-1.9,2.6-3,3.8c-0.8,0.9-1.1,1.8-1,3c0.1,1,0,2,0,3.1c-0.4,0-0.8,0.1-1.2,0.1c0-0.3-0.1-0.5-0.1-0.6
			c0.6-3.2-0.7-5.7-2.8-7.9c-0.4-0.4-0.7-0.9-1.1-1.4c1.5-0.3,1.5-0.3,2.6,1.1c0.6,0.8,1.3,1.6,2,2.5c0.8-1,1.5-2,2.3-2.9
			C222.7,156.5,222.7,156.5,224.2,156.7z"/>
		<path d="M181.1,166.7c0-3.4,0-6.7,0-10c0.4,0,0.7-0.1,1.2-0.1c0,3.4,0,6.7,0,10C181.9,166.7,181.6,166.7,181.1,166.7z"/>
	</g>
</g>
</svg>
